# xmcd CD database file
#
# Track frame offsets:
#	150
#	23352
#	44755
#	62695
#	89054
#	112618
#	132212
#	157887
#	182955
#	199053
#	225198
#	247031
#
# Disc length: 3583 seconds
#
# Revision: 0
# Processed by: cddbd v1.4PL0 Copyright (c) Steve Scherf et al.
# Submitted via: CDex 1.50beta10
#
DISCID=940dfd0c
DTITLE=Arthur Neilson - Moan And Cry
DYEAR=2003
DGENRE=Blues
TTITLE0=Tried To make You Stay
TTITLE1=Sleeping In My Clothes
TTITLE2=At The Bottom Of A Glass
TTITLE3=Coming Home Baby
TTITLE4=I Just Want To See Your Flame
TTITLE5=Clarksdale Blues
TTITLE6=I'm Just Your Fool
TTITLE7=Moan and Cry
TTITLE8=Please Stay
TTITLE9=When It's Over
TTITLE10=Riding The Blue Highway
TTITLE11=You Don't Have To Go
EXTD=YEAR: 2003
EXTT0=
EXTT1=
EXTT2=
EXTT3=
EXTT4=
EXTT5=
EXTT6=
EXTT7=
EXTT8=
EXTT9=
EXTT10=
EXTT11=
PLAYORDER=
